<?xml version="1.0" encoding="utf-8"?>
<!-- Generator: Adobe Illustrator 24.1.1, SVG Export Plug-In . SVG Version: 6.00 Build 0)  -->
<svg version="1.1" id="Layer_1" xmlns="http://www.w3.org/2000/svg" xmlns:xlink="http://www.w3.org/1999/xlink" x="0px" y="0px"
	 viewBox="0 0 512 512" style="enable-background:new 0 0 512 512;" xml:space="preserve">
<style type="text/css">
	.st0{fill:#009DFF;}
</style>
<path class="st0" d="M58.9,468.9c-19.3,0-35.3-6.4-48.2-19.2c-6.3-6.6-6.2-16.7,0.2-22.8c10.5-10.1,17.6-17.4,21.4-21.9
	c3.8-4.5,9-14.1,15.5-28.9c-20-35.5-31.5-76.5-31.5-120.2c0-135.2,109.6-244.9,244.9-244.9C396.4,11.1,506,120.8,506,256
	c0,135.2-109.6,244.9-244.9,244.9c-52.3,0-100.8-16.4-140.6-44.4C101.3,464.8,80.8,468.9,58.9,468.9L58.9,468.9z M66.2,432.8
	c17,0,32.6-3.2,47.2-9.5l10.3-4.5c3.4-1.5,7.3-1.1,10.4,1.1l9.2,6.5c34.3,24.1,75,37.2,117.9,37.2c113.4,0,205.2-91.9,205.2-205.2
	S374.5,53.1,261.2,53.1S55.9,145,55.9,258.3c0,35.8,9.2,70.2,26.4,100.7l4.9,8.8c1.6,2.9,1.8,6.5,0.5,9.5l-4.1,9.2
	C76.2,403.4,70.2,414.6,64,422c-2.2,2.6-5.1,5.7-8.8,9.5C58.5,432.3,62.1,432.8,66.2,432.8L66.2,432.8z M141,302.4
	c0,10.5-4.8,15.8-14.4,15.8c-9.4,0-14.2-5.3-14.2-16v-73.6c0-4.7,1.4-8.3,4-11c2.7-2.7,6.1-4.1,10.3-4.1c9.4,0,14.2,5.1,14.2,15.3
	V302.4z M304.6,303.8c0,9.6-4.8,14.4-14.4,14.4c-9.6,0-14.4-4.8-14.4-14.4v-55.2c0-8-4.4-11.9-13.1-11.9c-3,0-5.8,1.2-8.5,3.6
	c-2.6,2.4-3.8,5.2-3.8,8.3v55.1c0,9.6-4.7,14.4-14.2,14.4c-9.7,0-14.6-4.8-14.6-14.4v-56.2c0-7.3-3.4-10.9-10.1-10.9
	c-3.4,0-6.7,1.4-10.1,4c-3.4,2.6-5.1,5.4-5.1,8.5v54.5c0,9.6-4.7,14.4-14,14.4c-9.8,0-14.8-4.8-14.8-14.4V227c0-9,4.7-13.6,14-13.6
	c7.4,0,12.1,3,14.2,9.1c6.2-6.1,13.9-9.1,23.1-9.1c10.7,0,19.1,4.1,25.5,12.3c6.3-8.2,15.8-12.3,28.3-12.3
	c10.9,0,19.1,3.4,24.7,10.1c4.9,5.8,7.3,13.7,7.3,23.7L304.6,303.8L304.6,303.8z M367.9,319.9c-26.5,0-47.9-23.8-47.9-53.2
	s21.4-53.2,47.9-53.2c26.5,0,47.9,23.8,47.9,53.2S394.4,319.9,367.9,319.9L367.9,319.9z M367.9,293.3c11.8,0,21.3-13.1,21.3-29.3
	c0-16.2-9.5-29.3-21.3-29.3s-21.3,13.1-21.3,29.3C346.6,280.2,356.2,293.3,367.9,293.3z M128.4,208.1c-8.8,0-16-7.1-16-16
	c0-8.8,7.1-16,16-16c0,0,0,0,0,0c8.8,0,16,7.2,16,16C144.4,200.9,137.2,208.1,128.4,208.1z"/>
</svg>
