<svg xmlns="http://www.w3.org/2000/svg" xmlns:xlink="http://www.w3.org/1999/xlink" viewBox="0 0 500 500"><defs><style>.cls-1{fill:none;}.cls-2{isolation:isolate;}.cls-3{fill:#ebebeb;}.cls-4{fill:#eb5757;}.cls-5{opacity:0.3;}.cls-6{opacity:0.5;}.cls-7{fill:#fafafa;}.cls-8{fill:#263238;}.cls-9{fill:#fff;}.cls-10{fill:#e0e0e0;}.cls-11{fill:#455a64;}.cls-12{clip-path:url(#clip-path);}.cls-13,.cls-14{fill:#222831;}.cls-14,.cls-18{mix-blend-mode:multiply;}.cls-15{fill:#feae93;}.cls-16{fill:#d14d4d;}.cls-17{fill:#febaa3;}.cls-19{fill:#1a0f24;}.cls-20{fill:#c16b5b;}.cls-21{fill:#eb7057;}</style><clipPath id="clip-path"><rect class="cls-1" width="500" height="500"/></clipPath></defs><title>4498894</title><g class="cls-2"><g id="Background_Simple" data-name="Background Simple"><path class="cls-3" d="M183.12,165.89l1.57.64A38.4,38.4,0,0,0,224,160.79a37.22,37.22,0,0,0,3.92-3.82,40.3,40.3,0,0,0,8.28-37.17c-2.16-7.52-6.56-14.77-5.85-22.54.92-10.1,10-17.1,18.29-22.83S266,61.67,266.88,51.56c.55-6.34-2.4-12.58-6.46-17.51C249.66,21,231.21,15.83,214.7,18.68s-31.09,12.79-42.31,25.18C156.67,61.23,146.66,84.42,147.77,108S162.09,155.08,183.12,165.89Z"/><circle class="cls-3" cx="279.24" cy="38.59" r="6.64" transform="translate(203.08 310) rotate(-82.19)"/><circle class="cls-3" cx="187.67" cy="183.08" r="6.64" transform="translate(-57.05 88.99) rotate(-23.26)"/></g><g id="Padlock"><path class="cls-4" d="M431.34,65a28.37,28.37,0,0,1,15.47,36.94L429.24,144.8l-7.89-3.23,17.57-42.91a19.79,19.79,0,1,0-36.63-15l-7.89-3.23A28.36,28.36,0,0,1,431.34,65Z"/><g class="cls-5"><path d="M431.34,65a28.37,28.37,0,0,1,15.47,36.94L429.24,144.8l-7.89-3.23,17.57-42.91a19.79,19.79,0,1,0-36.63-15l-7.89-3.23A28.36,28.36,0,0,1,431.34,65Z"/></g><rect class="cls-4" x="363.42" y="113.16" width="76.31" height="48.96" rx="5.81" transform="translate(721.04 417.18) rotate(-157.73)"/><g class="cls-6"><path d="M398.09,129.32a6.38,6.38,0,1,1,5.2,8.73l-3.62,8.82-3.22-1.32,3.62-8.82A6.35,6.35,0,0,1,398.09,129.32Z"/></g><path class="cls-7" d="M425.6,168.91c.16.07,3.39-7.43,7.21-16.75s6.78-16.93,6.61-17-3.38,7.43-7.2,16.76S425.44,168.85,425.6,168.91Z"/><path class="cls-7" d="M405.52,141.19s.31,0,.85-.11a7.76,7.76,0,0,0,2.16-.92,9,9,0,0,0,2.14-13.62A7.74,7.74,0,0,0,408.9,125c-.47-.29-.76-.39-.78-.36a19.41,19.41,0,0,1,2.2,2.19,8.84,8.84,0,0,1-2,13A18.71,18.71,0,0,1,405.52,141.19Z"/><path class="cls-4" d="M455.58,148.93l-.38-1.11-.73.92a4.92,4.92,0,0,1-2.26,1.6l-1.11.38.92.73a4.92,4.92,0,0,1,1.6,2.26l.38,1.11.73-.92a5,5,0,0,1,2.26-1.6l1.11-.38-.92-.73A5,5,0,0,1,455.58,148.93Z"/><path class="cls-4" d="M418.35,105.17l-.22-.65-.42.54a2.86,2.86,0,0,1-1.32.92l-.64.23.53.42a2.9,2.9,0,0,1,.93,1.31l.22.65.43-.54a2.83,2.83,0,0,1,1.31-.92l.65-.23-.54-.42A2.9,2.9,0,0,1,418.35,105.17Z"/><path class="cls-4" d="M463.12,110.62l-.64-1.87-1.23,1.55a8.21,8.21,0,0,1-3.8,2.68l-1.87.64,1.55,1.23a8.3,8.3,0,0,1,2.69,3.8l.64,1.87,1.22-1.55a8.41,8.41,0,0,1,3.8-2.69l1.87-.64-1.55-1.23A8.23,8.23,0,0,1,463.12,110.62Z"/></g><g id="Device"><path class="cls-8" d="M361,376l-115.79-.07A25.22,25.22,0,0,1,220,350.69l.06-290.29A25.22,25.22,0,0,1,245.3,35.18l115.79.07A25.22,25.22,0,0,1,386.3,60.48l-.06,290.29A25.22,25.22,0,0,1,361,376Z"/><path class="cls-9" d="M361,45.51H338.52a5.59,5.59,0,0,0-5.46,5.7v4.07a5.58,5.58,0,0,1-5.45,5.7l-43.76,0a5.58,5.58,0,0,1-5.45-5.7V51.16a5.58,5.58,0,0,0-5.45-5.7H245.4a17.66,17.66,0,0,0-17.67,17.66l-.06,283.35a17.67,17.67,0,0,0,17.66,17.67l115.56.06a17.67,17.67,0,0,0,17.68-17.66l.05-283.35A17.67,17.67,0,0,0,361,45.51Z"/><path class="cls-8" d="M292.42,342.54a2.22,2.22,0,1,1-2.24-2.2A2.23,2.23,0,0,1,292.42,342.54Z"/><path class="cls-8" d="M304.84,342.44a2.22,2.22,0,1,1-2.23-2.2A2.21,2.21,0,0,1,304.84,342.44Z"/><path class="cls-8" d="M317.27,342.33a2.22,2.22,0,1,1-2.23-2.2A2.22,2.22,0,0,1,317.27,342.33Z"/><path class="cls-8" d="M361.64,74.13c0,.06-2.92.14-6.52.17s-6.52,0-6.52-.07,2.92-.14,6.52-.17S361.64,74.06,361.64,74.13Z"/><path class="cls-8" d="M361.67,77.46c0,.07-2.92.15-6.52.18s-6.52,0-6.53-.07,2.92-.15,6.53-.18S361.67,77.4,361.67,77.46Z"/><path class="cls-8" d="M361.7,80.8c0,.07-2.92.15-6.52.18s-6.53,0-6.53-.07,2.92-.15,6.52-.18S361.69,80.73,361.7,80.8Z"/><path class="cls-8" d="M243,84.61l.27,0,.76,0,2.78-.06-.06.07c0-.62,0-1.29,0-2,0-.38,0-.73,0-1.16a1.05,1.05,0,0,1,.92-.85c.45,0,.85,0,1.33,0a1.06,1.06,0,0,1,.9,1.07c0,.94,0,1.92,0,2.94l-.12-.11,3.51,0-.11.12c0-1.41,0-2.87,0-4.37,0-.38,0-.75,0-1.12a1,1,0,0,0-.15-.46,2.42,2.42,0,0,0-.35-.38c-.52-.51-1-1-1.54-1.51s-1-1-1.48-1.46l-.72-.71a1.63,1.63,0,0,0-.73-.55,1,1,0,0,0-.82.16c-.21.18-.44.43-.65.64-.44.44-.86.86-1.26,1.28-.8.82-1.62,1.57-2.22,2.29a2.44,2.44,0,0,0-.18,1.31v1.24c0,.76,0,1.43,0,2v1.27c0,.29,0,.46,0,.46s0-.14,0-.43,0-.74,0-1.25,0-1.24,0-2c0-.4,0-.82,0-1.26l0-.69a1.46,1.46,0,0,1,.2-.73c.64-.79,1.42-1.5,2.22-2.35l1.25-1.28c.23-.22.41-.44.68-.67a1.21,1.21,0,0,1,1-.2,1.84,1.84,0,0,1,.83.6l.72.71c.49.48,1,1,1.49,1.46s1,1,1.54,1.51a3.22,3.22,0,0,1,.39.42,1.11,1.11,0,0,1,.18.59c0,.37,0,.74,0,1.12,0,1.49,0,3,0,4.37v.12h-.12l-3.52,0h-.11v-.12c0-1,0-2,0-2.94a.86.86,0,0,0-.72-.87c-.41,0-.88,0-1.28,0a.86.86,0,0,0-.76.69c0,.36,0,.77,0,1.13v2.09h-.06l-2.83,0h-1Z"/><path class="cls-10" d="M368.82,169.74c0,.12-29.05.21-64.87.21s-64.88-.09-64.88-.21,29-.2,64.88-.2S368.82,169.63,368.82,169.74Z"/><path class="cls-10" d="M365.78,289.18c0,.12-29,.21-64.87.21S236,289.3,236,289.18s29-.2,64.88-.2S365.78,289.07,365.78,289.18Z"/><path class="cls-10" d="M336.43,298.15c0,.11-16.14.21-36,.21s-36-.1-36-.21,16.13-.2,36-.2S336.43,298,336.43,298.15Z"/><path class="cls-4" d="M250.74,204.51l2.46,1.33-1.11,1.85-2.48-1.46,0,2.73h-2.12l0-2.75-2.48,1.48L244,205.84l2.46-1.33L244,203.16l1.08-1.85,2.48,1.49,0-2.75h2.12l0,2.75,2.48-1.49,1.11,1.85Z"/><path class="cls-4" d="M278.91,204.51l2.46,1.33-1.1,1.85-2.48-1.46,0,2.73h-2.12l0-2.75-2.48,1.48-1.08-1.85,2.46-1.33-2.46-1.35,1.08-1.85,2.48,1.49,0-2.75h2.12l0,2.75,2.48-1.49,1.1,1.85Z"/><path class="cls-4" d="M306.34,204.51l2.46,1.33-1.11,1.85-2.48-1.46.05,2.73h-2.12l0-2.75-2.48,1.48-1.08-1.85,2.46-1.33-2.46-1.35,1.08-1.85,2.48,1.49,0-2.75h2.12l-.05,2.75,2.48-1.49,1.11,1.85Z"/><path class="cls-4" d="M332.91,204.51l2.46,1.33-1.11,1.85-2.48-1.46.05,2.73h-2.12l0-2.75-2.48,1.48-1.08-1.85,2.45-1.33-2.45-1.35,1.08-1.85,2.48,1.49,0-2.75h2.12l-.05,2.75,2.48-1.49,1.11,1.85Z"/><path class="cls-4" d="M359.27,204.51l2.46,1.33-1.11,1.85-2.48-1.46.05,2.73h-2.12l0-2.75-2.48,1.48-1.08-1.85,2.45-1.33-2.45-1.35,1.08-1.85,2.48,1.49,0-2.75h2.12l-.05,2.75,2.48-1.49,1.11,1.85Z"/><path class="cls-8" d="M255.11,221.6H243.22a5.55,5.55,0,0,1-5.54-5.54V195a5.55,5.55,0,0,1,5.54-5.55h11.89a5.56,5.56,0,0,1,5.55,5.55v21.1A5.55,5.55,0,0,1,255.11,221.6Zm-11.89-31.79a5.16,5.16,0,0,0-5.15,5.15v21.1a5.16,5.16,0,0,0,5.15,5.15h11.89a5.16,5.16,0,0,0,5.16-5.15V195a5.16,5.16,0,0,0-5.16-5.15Z"/><path class="cls-8" d="M282.72,221.6H270.83a5.55,5.55,0,0,1-5.55-5.54V195a5.56,5.56,0,0,1,5.55-5.55h11.89a5.55,5.55,0,0,1,5.54,5.55v21.1A5.55,5.55,0,0,1,282.72,221.6Zm-11.89-31.79a5.16,5.16,0,0,0-5.15,5.15v21.1a5.16,5.16,0,0,0,5.15,5.15h11.89a5.16,5.16,0,0,0,5.15-5.15V195a5.16,5.16,0,0,0-5.15-5.15Z"/><path class="cls-8" d="M309.56,221.6H297.67a5.55,5.55,0,0,1-5.54-5.54V195a5.55,5.55,0,0,1,5.54-5.55h11.89a5.56,5.56,0,0,1,5.55,5.55v21.1A5.55,5.55,0,0,1,309.56,221.6Zm-11.89-31.79a5.16,5.16,0,0,0-5.15,5.15v21.1a5.16,5.16,0,0,0,5.15,5.15h11.89a5.16,5.16,0,0,0,5.15-5.15V195a5.16,5.16,0,0,0-5.15-5.15Z"/><path class="cls-8" d="M336.71,221.6H324.82a5.55,5.55,0,0,1-5.54-5.54V195a5.55,5.55,0,0,1,5.54-5.55h11.89a5.56,5.56,0,0,1,5.55,5.55v21.1A5.55,5.55,0,0,1,336.71,221.6Zm-11.89-31.79a5.16,5.16,0,0,0-5.15,5.15v21.1a5.16,5.16,0,0,0,5.15,5.15h11.89a5.16,5.16,0,0,0,5.15-5.15V195a5.16,5.16,0,0,0-5.15-5.15Z"/><path class="cls-8" d="M363.07,221.6H351.18a5.55,5.55,0,0,1-5.54-5.54V195a5.55,5.55,0,0,1,5.54-5.55h11.89a5.56,5.56,0,0,1,5.55,5.55v21.1A5.55,5.55,0,0,1,363.07,221.6Zm-11.89-31.79A5.16,5.16,0,0,0,346,195v21.1a5.16,5.16,0,0,0,5.15,5.15h11.89a5.16,5.16,0,0,0,5.16-5.15V195a5.16,5.16,0,0,0-5.16-5.15Z"/><rect class="cls-4" x="237.87" y="247.08" width="133.19" height="23.33" rx="9.03"/><path class="cls-9" d="M287.65,254.05h3.58c2.59,0,4.36,1.56,4.36,3.95s-1.77,3.95-4.36,3.95h-3.58Zm3.49,6.4a2.45,2.45,0,1,0,0-4.9h-1.66v4.9Z"/><path class="cls-9" d="M296.39,258.91a3.34,3.34,0,1,1,3.34,3.13A3.13,3.13,0,0,1,296.39,258.91Zm4.88,0a1.56,1.56,0,1,0-1.54,1.68A1.53,1.53,0,0,0,301.27,258.91Z"/><path class="cls-9" d="M310.43,258.47V262h-1.76v-3.21c0-1-.45-1.43-1.23-1.43S306,257.83,306,259v3h-1.76v-6.07h1.68v.71a2.64,2.64,0,0,1,2-.8A2.38,2.38,0,0,1,310.43,258.47Z"/><path class="cls-9" d="M318,259.41h-4.59a1.62,1.62,0,0,0,1.74,1.22,2,2,0,0,0,1.52-.59l.93,1a3.54,3.54,0,0,1-6-2.15,3.09,3.09,0,0,1,3.24-3.12,3,3,0,0,1,3.15,3.15C318,259.07,318,259.26,318,259.41Zm-4.61-1h3a1.51,1.51,0,0,0-3,0Z"/><circle class="cls-4" cx="303.15" cy="112.12" r="23.57"/><path class="cls-9" d="M299,107.84h-.39v-2.2a4.6,4.6,0,1,1,9.19,0v1.79h-.39v-1.79a4.21,4.21,0,1,0-8.41,0Z"/><path class="cls-9" d="M309,123.21H297.3a1.94,1.94,0,0,1-1.93-1.94V109.58a1.94,1.94,0,0,1,1.93-1.94H309a1.94,1.94,0,0,1,1.94,1.94v11.69A1.94,1.94,0,0,1,309,123.21ZM297.3,108a1.55,1.55,0,0,0-1.54,1.55v11.69a1.55,1.55,0,0,0,1.54,1.55H309a1.55,1.55,0,0,0,1.55-1.55V109.58A1.55,1.55,0,0,0,309,108Z"/><path class="cls-9" d="M303.21,115.81A1.84,1.84,0,1,1,305,114,1.84,1.84,0,0,1,303.21,115.81Zm0-3.28a1.45,1.45,0,1,0,1.44,1.44A1.45,1.45,0,0,0,303.21,112.53Z"/><rect class="cls-9" x="302.95" y="115.53" width="0.39" height="3.31"/></g><g id="Floor"><path class="cls-8" d="M478.63,376.21c0,.11-76.22.2-170.23.2s-170.24-.09-170.24-.2S214.37,376,308.4,376,478.63,376.09,478.63,376.21Z"/></g><g id="Plant"><path class="cls-4" d="M423.59,247.33c8.91-13.63,8.57-33.56-2.08-45.89-3.3-3.83-7.92-7.16-13-6.73s-9.31,4.87-10.88,9.8-1,10.28-.11,15.38c1.29,7.13,3.46,14.43,8.4,19.73s11.27,11.19,17.63,7.71"/><path class="cls-4" d="M419.61,312.51a20.36,20.36,0,0,0-5.68-23.14c-2-1.67-4.73-3-7.28-2.29s-4.36,3.35-4.72,6a16.76,16.76,0,0,0,1.34,7.93c1.31,3.56,3.08,7.12,6.11,9.4s7.27,4.43,10.23,2.06"/><path class="cls-4" d="M441.11,307.83A29.49,29.49,0,0,1,456,276.71c3.4-1.76,7.58-2.81,11-1.09s5.18,6,4.91,9.94-2.16,7.51-4.24,10.84c-2.9,4.66-6.47,9.18-11.43,11.52s-11.61,4.14-15.11-.09"/><path class="cls-4" d="M439.57,275.14c-4.27-13.77,3-30.47,15-38.37,3.74-2.45,8.48-4.16,12.66-2.57s6.75,6.41,6.88,11-1.63,9-3.65,13.11c-2.84,5.75-6.45,11.44-11.95,14.74s-14.4,6.61-19,2.1"/><path class="cls-8" d="M431,342.46a3.28,3.28,0,0,0,.14-.66c.07-.5.16-1.14.28-1.92.06-.43.12-.89.19-1.39s.21-1.06.32-1.64c.22-1.18.46-2.52.84-4,.18-.74.36-1.5.56-2.3l.72-2.46c.46-1.71,1.14-3.48,1.77-5.36A104.27,104.27,0,0,1,441.14,311,103,103,0,0,1,448,300c1.21-1.57,2.31-3.11,3.48-4.44l1.65-2,1.61-1.73c1-1.13,2-2.06,2.85-2.9l1.19-1.17,1.05-.93,1.44-1.3a3.3,3.3,0,0,0,.48-.48,2.88,2.88,0,0,0-.55.39l-1.52,1.22-1.09.9-1.23,1.13c-.88.82-1.89,1.74-2.92,2.85l-1.64,1.72c-.54.62-1.11,1.27-1.69,1.95-1.19,1.32-2.31,2.86-3.55,4.43a89.74,89.74,0,0,0-12.27,22.88c-.63,1.9-1.3,3.68-1.74,5.41-.24.85-.47,1.68-.69,2.48s-.35,1.57-.52,2.31c-.36,1.47-.57,2.83-.76,4-.1.59-.19,1.14-.27,1.66s-.1,1-.14,1.4c-.08.79-.14,1.43-.18,1.94A2.43,2.43,0,0,0,431,342.46Z"/><path class="cls-8" d="M431.31,344.94a.92.92,0,0,0,0-.27c0-.22,0-.48-.06-.8-.07-.75-.16-1.77-.28-3.06-.07-.67-.14-1.41-.22-2.21s-.08-1.69-.13-2.64c-.07-1.89-.25-4-.19-6.43,0-1.19,0-2.44,0-3.74s.14-2.65.2-4.05c.1-2.8.48-5.77.82-8.9a127.24,127.24,0,0,1,11.6-39.13c1.42-2.81,2.72-5.51,4.17-7.91.71-1.21,1.34-2.4,2-3.5s1.38-2.14,2-3.15c1.25-2,2.57-3.74,3.66-5.28.56-.77,1.06-1.5,1.55-2.14L457.9,250l1.9-2.41.49-.63.15-.23s-.08.05-.2.19l-.53.6-2,2.34-1.43,1.71c-.5.63-1,1.35-1.59,2.11-1.12,1.53-2.47,3.23-3.74,5.26-.66,1-1.35,2-2.06,3.13s-1.36,2.29-2.08,3.5c-1.47,2.4-2.79,5.1-4.24,7.92a124.85,124.85,0,0,0-11.65,39.29c-.32,3.15-.69,6.13-.76,9-.06,1.4-.17,2.76-.17,4.06s0,2.56,0,3.76c0,2.39.17,4.55.27,6.44.07.95.11,1.83.18,2.64s.19,1.54.27,2.21c.17,1.29.3,2.31.39,3.05.05.32.09.58.12.79A1,1,0,0,0,431.31,344.94Z"/><path class="cls-8" d="M408.1,211.18s0,.09.12.25.23.43.38.72l1.52,2.72c.33.59.72,1.23,1.1,2l1.2,2.39,1.37,2.76c.46,1,.91,2,1.4,3.15s1,2.26,1.51,3.48,1,2.52,1.48,3.84c.25.67.51,1.34.77,2s.48,1.4.72,2.12c.49,1.43,1,2.91,1.49,4.43,1.89,6.11,3.68,12.91,5.2,20.14s2.49,14.2,3.24,20.55,1.14,12.11,1.27,16.95c.12,2.42.14,4.61.15,6.53s0,3.58,0,4.93,0,2.36,0,3.12v.81a1.07,1.07,0,0,0,0,.28,1,1,0,0,0,0-.28q0-.31.06-.81c0-.76.09-1.8.15-3.11s.11-3,.11-4.94,0-4.12-.07-6.54c-.08-4.85-.52-10.62-1.14-17s-1.75-13.35-3.21-20.61-3.33-14.07-5.25-20.19c-.52-1.51-1-3-1.52-4.43l-.74-2.12-.79-2c-.53-1.32-1-2.61-1.52-3.84s-1.05-2.37-1.54-3.48-1-2.16-1.44-3.14-1-1.89-1.42-2.74l-1.24-2.39c-.4-.72-.81-1.36-1.15-1.94l-1.62-2.67c-.17-.28-.32-.5-.43-.69S408.11,211.17,408.1,211.18Z"/><path class="cls-8" d="M411.13,294.85a13.43,13.43,0,0,0,.95,1.66c.65,1,1.55,2.58,2.6,4.51s2.21,4.27,3.37,6.93a94.07,94.07,0,0,1,3.28,8.85,91.74,91.74,0,0,1,2.28,9.15c.54,2.85.91,5.44,1.13,7.63s.35,4,.4,5.19a12.28,12.28,0,0,0,.15,1.9,12.48,12.48,0,0,0,.07-1.91c0-1.23,0-3-.21-5.22a77.25,77.25,0,0,0-1-7.69,87.86,87.86,0,0,0-2.25-9.23,89.38,89.38,0,0,0-3.34-8.89c-1.21-2.66-2.4-5-3.51-6.91s-2.06-3.43-2.77-4.43A10,10,0,0,0,411.13,294.85Z"/><polygon class="cls-11" points="448.5 336.33 409.35 336.33 414.08 376.32 443.63 376.32 448.5 336.33"/><polygon class="cls-8" points="447.07 372.01 443.75 376.32 414.08 376.32 410.66 372.14 447.07 372.01"/><path class="cls-7" d="M410.87,348.09c0,.16,8.13.29,18.15.29s18.15-.13,18.15-.29S439,347.8,429,347.8,410.87,347.93,410.87,348.09Z"/><path class="cls-7" d="M410.87,350.75c0,.16,8.13.3,18.15.3s18.15-.14,18.15-.3-8.13-.29-18.15-.29S410.87,350.59,410.87,350.75Z"/><path class="cls-7" d="M411.36,353.33c0,.16,7.84.29,17.51.29s17.52-.13,17.52-.29-7.84-.29-17.52-.29S411.36,353.17,411.36,353.33Z"/><path class="cls-8" d="M442.52,250.13a1.56,1.56,0,0,0,0,.38c0,.29.05.65.09,1.09.1,1,.23,2.35.4,4,.36,3.36.88,8,1.48,13.13q0,.3.06.57l0,.18h.18c5,.08,9.56.13,12.83.14h3.86l1.05,0,.37,0s-.13,0-.37-.05l-1-.05-3.87-.12c-3.27-.09-7.8-.19-12.83-.27l.2.18c0-.18,0-.38-.07-.57-.6-5.13-1.16-9.77-1.59-13.12-.22-1.63-.4-3-.53-4-.07-.43-.12-.79-.16-1.08A2.09,2.09,0,0,0,442.52,250.13Z"/><path class="cls-8" d="M451.43,238.17s0,.13,0,.39,0,.67,0,1.12c0,1,0,2.43,0,4.13.05,3.49.15,8.3.28,13.61,0,.22,0,.43,0,.63v.21l.21,0a121.61,121.61,0,0,1,13.16-.29c1.68.05,3,.12,4,.17l1.08.05a1.38,1.38,0,0,0,.38,0,1.47,1.47,0,0,0-.37-.07c-.25,0-.61-.08-1.08-.12-.93-.1-2.28-.21-4-.3a103.61,103.61,0,0,0-13.2.18l.21.19c0-.2,0-.41,0-.63-.13-5.31-.27-10.12-.39-13.61-.06-1.69-.12-3.09-.16-4.12,0-.45-.05-.82-.07-1.12A1.47,1.47,0,0,0,451.43,238.17Z"/><path class="cls-8" d="M461.85,234.09a7.2,7.2,0,0,0-.25,1.15c-.15.81-.34,1.87-.58,3.15-.51,2.66-1.3,6.32-2.42,10.33l-.12.42.4-.19.47-.22a34,34,0,0,1,10.44-3.06c1.39-.17,2.52-.23,3.31-.26a8.36,8.36,0,0,0,1.21-.07,1.3,1.3,0,0,0-.31,0c-.21,0-.51,0-.91,0a28.89,28.89,0,0,0-3.33.13,31.84,31.84,0,0,0-10.58,3l-.48.23.28.23a100.83,100.83,0,0,0,2.31-10.39c.22-1.34.37-2.42.46-3.18A7.64,7.64,0,0,0,461.85,234.09Z"/><path class="cls-8" d="M406.55,307c0,.06,1.13-.06,3-.13a49.43,49.43,0,0,1,7.12.23l1.64.2.19,0,0-.18c.42-2.37.78-4.46,1-6a16.41,16.41,0,0,0,.3-2.41,18.8,18.8,0,0,0-.56,2.37c-.3,1.48-.71,3.56-1.14,5.93l.22-.16c-.53-.08-1.09-.15-1.66-.21a40.21,40.21,0,0,0-7.18-.12c-.91.07-1.65.17-2.16.24A2.76,2.76,0,0,0,406.55,307Z"/><path class="cls-8" d="M402.85,299.66c0,.06,1.1-.19,2.87-.41a30.78,30.78,0,0,1,6.95-.07c.42,0,.83.1,1.22.15l.21,0,0-.2c.25-2.44.45-4.59.57-6.14a16.49,16.49,0,0,0,.13-2.5,15.81,15.81,0,0,0-.39,2.47c-.2,1.54-.44,3.69-.7,6.13l.22-.18c-.4-.05-.81-.11-1.24-.15a26.66,26.66,0,0,0-7,.18c-.89.15-1.6.31-2.09.44A2.55,2.55,0,0,0,402.85,299.66Z"/><path class="cls-8" d="M400.2,230a1.91,1.91,0,0,0,.39.2l1.14.51,4.23,1.8,14,5.81.76.31.18.07.08-.17,5.92-13.39c.72-1.67,1.31-3,1.75-4l.45-1.11a2.17,2.17,0,0,0,.14-.4,1.3,1.3,0,0,0-.21.37l-.52,1.07-1.86,4-6,13.34.26-.11-.76-.31-14.07-5.7-4.28-1.69c-.48-.17-.87-.32-1.17-.44A1.52,1.52,0,0,0,400.2,230Z"/><path class="cls-8" d="M396.77,213.12a1.54,1.54,0,0,0,.34.25l1,.67,3.82,2.38,12.76,7.78.2.12.08-.22.24-.62c2.07-5.61,4-10.69,5.34-14.42.65-1.82,1.19-3.3,1.58-4.39.16-.48.3-.88.41-1.2a1.25,1.25,0,0,0,.11-.42,2.34,2.34,0,0,0-.19.4l-.48,1.17L420.32,209l-5.46,14.38c-.08.22-.15.43-.23.62l.29-.1-12.82-7.68-3.88-2.27-1.07-.6A1.7,1.7,0,0,0,396.77,213.12Z"/><path class="cls-8" d="M397.89,204.09a4.55,4.55,0,0,0,.84.5c.55.3,1.35.75,2.31,1.35a41.16,41.16,0,0,1,7.1,5.56l.49.48-.16-.67c-.18-.7-.33-1.44-.45-2.2a25.4,25.4,0,0,1,.55-10.44,29.71,29.71,0,0,1,1-3,6.72,6.72,0,0,0,.42-1.1,5.57,5.57,0,0,0-.56,1,23.89,23.89,0,0,0-1.13,3,24.39,24.39,0,0,0-.68,10.57c.13.77.29,1.52.47,2.23l.32-.19a37.62,37.62,0,0,0-7.23-5.49c-1-.57-1.81-1-2.39-1.26A5.28,5.28,0,0,0,397.89,204.09Z"/><path class="cls-8" d="M442.57,291.9a8,8,0,0,0,.18,1c.14.65.34,1.58.55,2.75a67,67,0,0,1,1.05,9.28v.17h.18l.88.06c3.88.23,7.39.42,9.94.54l3,.12a5.68,5.68,0,0,0,1.11,0,5.64,5.64,0,0,0-1.1-.15l-3-.24c-2.54-.19-6.06-.42-9.94-.66l-.88,0,.19.19a58.2,58.2,0,0,0-1.18-9.31c-.25-1.17-.49-2.1-.67-2.74A4.22,4.22,0,0,0,442.57,291.9Z"/><path class="cls-8" d="M450.27,280.86a5.29,5.29,0,0,0,.06,1c.09.72.19,1.65.32,2.78.28,2.35.71,5.63,1.2,9.29l0,.16H452l1.26.09c4,.27,7.57.68,10.16,1l3.07.42a6.74,6.74,0,0,0,1.13.11,5.68,5.68,0,0,0-1.1-.27c-.72-.14-1.76-.33-3.06-.53-2.58-.41-6.18-.87-10.17-1.14l-1.26-.08.18.17c-.5-3.67-1-6.93-1.32-9.28-.18-1.12-.33-2-.44-2.76A6.22,6.22,0,0,0,450.27,280.86Z"/><path class="cls-8" d="M459.33,276.11c-.06,0,.18,1.08.46,2.83a51.61,51.61,0,0,1,.63,6.93v.22l.22,0,.66-.08a60.1,60.1,0,0,1,7.39-.44l2.25,0a3.32,3.32,0,0,0,.83,0,3.21,3.21,0,0,0-.82-.13c-.53-.06-1.3-.12-2.25-.15a46.27,46.27,0,0,0-7.45.32l-.66.09.22.19a39.61,39.61,0,0,0-.76-7c-.17-.87-.34-1.57-.48-2.05A3.64,3.64,0,0,0,459.33,276.11Z"/><path class="cls-8" d="M407.74,287.14a32.21,32.21,0,0,0,1.74,4,34.52,34.52,0,0,0,1.89,3.91,18.52,18.52,0,0,0-1.53-4.08A18.81,18.81,0,0,0,407.74,287.14Z"/><path class="cls-8" d="M402.81,292.36a39.9,39.9,0,0,1,4.45.9,37.45,37.45,0,0,1,4.18,1.78,10.11,10.11,0,0,0-4.06-2.16A10.29,10.29,0,0,0,402.81,292.36Z"/><g class="cls-12"><path class="cls-13" d="M47,503.54c29.6,41.08,159,44,167.71,51.7,4.57,4,8.43,98.43,15.53,160.1.07.52.13,1,.19,1.57q.66,5.61,1.35,10.82c2.8.12,6,.18,9.36.17l1.56,0c20.57-.2,48.51-2.61,55-4.12q.19-5.68.23-11.91c0-.53,0-1.05,0-1.58.56-74.7-10.76-199.17-22.69-215.52C252.83,464,137.88,411.42,137.88,411.42l-78.12,5.91-1.56.07-23,.9S22.48,469.5,47,503.54Z"/><path class="cls-13" d="M177.78,413.15s130.14,25.91,148.37,42.73S413,622.73,413,622.73s-21,21.5-61.17,28.51c0,0-80.85-131.33-92.07-146.75S75.17,414.15,75.17,414.15Z"/><path class="cls-14" d="M167.15,450.44q37,20.9,74.35,41.22,9,4.88,17.92,9.71-6.69-11.62-13.8-23c-.85-1.36,1.3-2.61,2.15-1.26q15.84,25.25,29.5,51.75c.73,1.42-1.42,2.69-2.15,1.26q-6.45-12.52-13.41-24.76a1.18,1.18,0,0,1-.34-.1Q224,485.09,186.84,464.35q-10.49-5.85-21-11.76A1.25,1.25,0,0,1,167.15,450.44Z"/><path class="cls-15" d="M235.32,301.27s16.62-2.14,21.15-6.59,9.46-26.63,6.14-29.56-17.27-10.35-20.57-5.64S224.65,283,224.65,283Z"/><path class="cls-16" d="M139.73,209.29c18.17,4.27,26.58,101.94,26.58,101.94L224.65,283S238.52,299,239.14,307.8c0,0-60.85,46.43-76.74,45.5s-34.88-44.4-34.88-44.4Z"/><path class="cls-4" d="M34.66,418.22c10.56,6.95,107.42,9.37,143.12-5.08L154.8,290l-3.29-17.61-.72-3.9-3.29-17.58-7.76-41.63-33.52-8.22-32.17,2.44-31.7,13.15-1.59,41.55L40.09,276l-.15,3.64-.67,17.72Z"/><path class="cls-9" d="M40.09,276a1.1,1.1,0,0,0,.25,0,452.53,452.53,0,0,1,110.45-7.47l-3.29-17.58a471.93,471.93,0,0,0-106.74,7.29Z"/><path class="cls-9" d="M39.27,297.36a5.84,5.84,0,0,0,1.07-.12A452.33,452.33,0,0,1,154.8,290l-3.29-17.61a473.43,473.43,0,0,0-111.57,7.23Z"/><path class="cls-13" d="M218.16,286.62l29.43-3.68a3.87,3.87,0,0,0,2.8-2.39l21.63-59c.43-1.18-.12-2-1.23-1.89l-29.43,3.67a3.89,3.89,0,0,0-2.8,2.4l-21.63,59C216.5,285.91,217.05,286.76,218.16,286.62Z"/><path class="cls-9" d="M265.54,224.15c-.41,1.12.11,1.92,1.17,1.79a3.66,3.66,0,0,0,2.64-2.26c.41-1.12-.11-1.92-1.16-1.79A3.68,3.68,0,0,0,265.54,224.15Z"/><path class="cls-17" d="M201.83,295.29s16.31,3.83,22.12,1.25,18.2-21.61,16.13-25.52-12.55-15.76-17.29-12.51-24.55,15.94-24.55,15.94Z"/><path class="cls-4" d="M42.36,216.66c-35.89,34.75,23.48,121,45.45,129.86,21.63,8.74,115.71-41.45,115.71-41.45,2.63-14.34-5.79-33.58-5.79-33.58s-93.36,36.19-95.45,34.84S42.36,216.66,42.36,216.66Z"/><g class="cls-18"><path class="cls-4" d="M45,296.19A289.9,289.9,0,0,0,75,336.81c5.11,5.71,11.15,10.88,19.08,11.64,8.21.79,16.83-1.69,24.6-4.1a126.16,126.16,0,0,0,25.65-11.24,1.37,1.37,0,0,1,1.38,2.37A129.65,129.65,0,0,1,122,346.15c-8.06,2.69-16.92,5.28-25.5,5.17-8.1-.1-14.78-3.79-20.45-9.36-6-5.85-11.08-12.65-16.11-19.27q-9.24-12.13-17.29-25.11C41.72,296.07,44.09,294.69,45,296.19Z"/><path class="cls-4" d="M140.23,296.07l-47.92,14.3a1.38,1.38,0,0,1-.73-2.65l9.51-2.84a97,97,0,0,0-9-10.28c-1.26-1.24.68-3.18,1.94-1.94A100.21,100.21,0,0,1,103.9,304l35.6-10.61A1.37,1.37,0,0,1,140.23,296.07Z"/></g><path d="M62.81,105.25a28.73,28.73,0,0,1,2-11c1.54-3.43,4.44-6.44,8.11-7.27a6.84,6.84,0,0,1,10.2-7.52c6.73-6.8,16.24-10.42,25.78-11.19S128,69.34,137.1,72.31c7.42,2.42,14.92,5.81,19.73,12s6,15.71.82,21.56c4.39,3.63,6.06,9.88,5.09,15.48s-4.27,10.6-8.31,14.61c-9.92,9.85-24.21,14.29-38.18,14.93-12.65.59-25.54-1.45-37.88-4.12C68.8,144.66,66.94,135.37,65,126.79A87.13,87.13,0,0,1,62.81,105.25Z"/><path class="cls-17" d="M148,152.63c-3.1,12.26-8.63,19.33-15.61,24a115.34,115.34,0,0,1-11.32,6.5c-8.24,4.45-13.29,8.18-15.22,25.75-6.63,12.48-26.79,12-31.58-3.48A153.78,153.78,0,0,0,71.43,153c-.68-2.89-1.25-4.81-1.49-5.55a3.74,3.74,0,0,1-.1-.37s.48-3.73,1.37-9.2c.1-.67.22-1.37.33-2.07,2.12-12.8,6-32.83,10.67-39.53,17.13-24.54,66.28-10.13,67.91,11.08C151.64,127.57,150.76,142,148,152.63Z"/><path d="M141.52,111.42A17.44,17.44,0,0,1,131,104.77a10.23,10.23,0,0,1-15.53,1.39,17.35,17.35,0,0,1-23.87,8.12,19.65,19.65,0,0,1-20.27,22.81c-.78,0-.8-12.41-.77-13.61a85.32,85.32,0,0,1,1.54-14.16c.78-4,1.54-8.53,3.67-12,2.31-3.81,4.71-7.65,8-10.75,3.57-3.39,7.62-4.24,11.91-6.24,4.13-1.92,8.55-2.32,13.08-2.24,6.91.12,13.63,1.93,20.44,2.43,5.76.43,12.11,4,16.27,7.81a25.62,25.62,0,0,1,7.25,11.85,22.31,22.31,0,0,1,.81,6.9c-.1,2.53-.87,3.08-3.32,3.86A17.39,17.39,0,0,1,141.52,111.42Z"/><path class="cls-19" d="M132.51,129.86a10.58,10.58,0,0,1,13,2.09,2.12,2.12,0,0,1,0,2.69,1.55,1.55,0,0,1-2.36.08,7.63,7.63,0,0,0-8.23-1.95c-.85.31-1.7.91-2.54.3a1.73,1.73,0,0,1-.49-.58A2.11,2.11,0,0,1,132.51,129.86Z"/><path class="cls-19" d="M120,128.48a13.53,13.53,0,0,0-15.07-1,1.93,1.93,0,0,0-.64,2.62,2,2,0,0,0,2.63.64,9.47,9.47,0,0,1,6.49-1.1,10.39,10.39,0,0,1,3.19,1.13c.87.49,1.7,1.27,2.78.87a1.72,1.72,0,0,0,.68-.45A1.93,1.93,0,0,0,120,128.48Z"/><path class="cls-20" d="M123.3,160.09a11.39,11.39,0,0,0,5.48-.73,1.69,1.69,0,1,0-1.23-3.14,8.88,8.88,0,0,1-10.14-3.06,1.7,1.7,0,0,0-2.31-.62,1.67,1.67,0,0,0-.62,2.3C115.83,157.2,119.26,159.64,123.3,160.09Z"/><path class="cls-20" d="M128.32,151a.42.42,0,0,0,.43-.25c1.1-2.66.27-3.69-.62-4.09a4.07,4.07,0,0,0-3.41.36.42.42,0,0,0-.2.56.43.43,0,0,0,.57.2,3.3,3.3,0,0,1,2.7-.35c.79.36.86,1.36.18,3a.43.43,0,0,0,.23.56Z"/><path d="M133.25,141.61a1.27,1.27,0,0,1,1.76,0c.11.11.22.22.34.32l.13.11.08.06c.23.15.46.3.7.43l.42.21.06,0,.08,0a8.16,8.16,0,0,0,.84.26l.42.08c-.2,0,.27,0,.31,0a6.91,6.91,0,0,0,.91,0l.25,0h.06l.38-.07a8.57,8.57,0,0,0,1-.31,1.25,1.25,0,0,1,1.53.87,1.28,1.28,0,0,1-.87,1.53,8,8,0,0,1-8.38-1.77A1.26,1.26,0,0,1,133.25,141.61Z"/><path d="M108,138.52a1.27,1.27,0,0,1,1.76,0l.35.32.13.1.08.06c.22.15.45.3.69.44l.42.2c.05,0,.05,0,.06,0l.08,0a8.11,8.11,0,0,0,.84.25l.43.09c-.21,0,.26,0,.31,0a6.76,6.76,0,0,0,.9,0l.25,0h.06l.38-.08a6.53,6.53,0,0,0,1-.3,1.26,1.26,0,0,1,1.54.87,1.29,1.29,0,0,1-.87,1.53,8,8,0,0,1-8.39-1.77A1.26,1.26,0,0,1,108,138.52Z"/><path class="cls-17" d="M58.74,146.8c3.73,5.6,10.36,7.74,14.81,4.77s5-9.9,1.28-15.5S64.47,128.34,60,131.3,55,141.2,58.74,146.8Z"/><path class="cls-20" d="M62.55,134.12a7.45,7.45,0,0,1,6.5.84,6.07,6.07,0,0,1,2.28,2.21,3.74,3.74,0,0,1,.16,3.46,5.26,5.26,0,0,1-2,1.91,5,5,0,0,0-1.34,1.08,1.9,1.9,0,0,0,2.14,2.93.85.85,0,0,1,.53,1.61,3.58,3.58,0,0,1-1.49.15,3.58,3.58,0,0,1-2.53-5.7,6.48,6.48,0,0,1,1.77-1.49A3.86,3.86,0,0,0,70,139.85a2.07,2.07,0,0,0-.13-1.86,3.7,3.7,0,0,0-.57-.71,3.45,3.45,0,0,0-2.5.56,3,3,0,0,0-1,2.38.84.84,0,0,1-.8.89h-.14a.85.85,0,0,1-.75-.79,4.67,4.67,0,0,1,1.58-3.74,3.67,3.67,0,0,1,1.35-.72,5.32,5.32,0,0,0-3.85-.16,3.28,3.28,0,0,0-2.07,3.77.84.84,0,1,1-1.6.53A4.93,4.93,0,0,1,62.55,134.12Z"/><path class="cls-21" d="M108.28,67.62c17.34.24,26.35,3.91,26.35,3.91C81.89,68.15,78.8,123,78.8,123l-16-1.87C64.76,77.2,91,67.39,108.28,67.62Z"/><ellipse class="cls-4" cx="69.99" cy="139.85" rx="17.13" ry="21.94"/><path class="cls-21" d="M54.64,139.14c0,8.91,4.58,16.14,10.23,16.14s10.24-7.23,10.24-16.14S70.53,123,64.87,123,54.64,130.23,54.64,139.14Z"/></g></g></g></svg>