<svg width="45" height="45" viewBox="0 0 45 45" fill="none" xmlns="http://www.w3.org/2000/svg">
<path d="M0.868047 13.0365L0.912369 12.6044C1.54475 6.43873 6.44191 1.57696 12.612 0.98933L14.5454 0.805193C20.1684 0.269669 25.8302 0.283022 31.4507 0.845064L32.4438 0.944377C38.5881 1.55881 43.4524 6.41074 44.0824 12.5535L44.132 13.0365C44.7093 18.6654 44.7361 24.3372 44.212 29.9713L43.9921 32.3345C43.4159 38.5289 38.5319 43.4468 32.3416 44.0658L31.4507 44.1549C25.8302 44.717 20.1685 44.7303 14.5454 44.1948L12.7147 44.0204C6.49857 43.4284 1.58144 38.5005 1.00308 32.2831L0.788026 29.9713C0.263925 24.3372 0.290726 18.6654 0.868047 13.0365Z" fill="white"/>
</svg>
